# Blender 4.2.1 LTS
# www.blender.org
mtllib cadeira.mtl
o Cube
v -4.999999 5.000000 5.000001
v -4.999999 4.410519 5.000001
v -5.000001 5.000000 -4.999999
v -5.000001 4.410519 -4.999999
v 5.000001 5.000000 4.999999
v 5.000001 4.410519 4.999999
v 4.999999 5.000000 -5.000001
v 4.999999 4.410519 -5.000001
v -3.999998 4.410519 5.000001
v 4.000001 4.410519 4.999999
v -4.000001 5.000000 -4.999999
v 3.999998 5.000000 -5.000001
v 3.999998 4.410519 -5.000001
v -4.000001 4.410519 -4.999999
v 4.000001 5.000000 4.999999
v -3.999998 5.000000 5.000001
v 5.000001 4.410519 3.999998
v 4.999999 4.410519 -4.000001
v -4.999999 5.000000 4.000001
v -5.000001 5.000000 -3.999998
v 4.999999 5.000000 -4.000001
v 5.000001 5.000000 3.999998
v -5.000001 4.410519 -3.999998
v -4.999999 4.410519 4.000001
v 4.000001 4.410519 3.999999
v 3.999999 4.410519 -4.000001
v -3.999999 4.410519 4.000001
v -4.000001 4.410519 -3.999999
v -3.999999 5.000000 4.000001
v -4.000001 5.000000 -3.999999
v 4.000001 5.000000 3.999999
v 3.999999 5.000000 -4.000001
v 4.999999 -7.198484 -4.000001
v 4.999999 -7.198484 -5.000001
v 4.000001 -7.198484 4.999999
v 5.000001 -7.198484 4.999999
v -4.000001 -7.198484 -4.999999
v -5.000001 -7.198484 -4.999999
v -4.999999 -7.198484 4.000001
v -4.999999 -7.198484 5.000001
v -3.999998 -7.198484 5.000001
v 3.999998 -7.198484 -5.000001
v 3.999999 -7.198484 -4.000001
v -4.000001 -7.198484 -3.999999
v 5.000001 -7.198484 3.999998
v -5.000001 -7.198484 -3.999998
v 4.000001 -7.198484 3.999999
v -3.999999 -7.198484 4.000001
v 5.000001 17.961027 3.999998
v 5.000001 17.961027 4.999999
v -3.999998 17.961027 5.000001
v -4.999999 17.961027 5.000001
v 4.000001 17.961027 4.999999
v -4.999999 17.961027 4.000001
v -3.999999 17.961027 4.000001
v 4.000001 17.961027 3.999999
v -3.999998 16.787737 5.000001
v -4.999999 16.787737 5.000001
v -4.999999 16.787750 4.000001
v -3.999999 16.787750 4.000001
v 4.000001 16.787750 4.999999
v 5.000001 16.787750 3.999998
v 4.000001 16.787750 3.999999
v 5.000001 16.787750 4.999999
v -3.999998 12.105333 5.000001
v -3.999998 10.855692 5.000001
v -4.999999 12.105333 5.000001
v -4.999999 10.855692 5.000001
v -4.999999 10.855692 4.000001
v -4.999999 12.105333 4.000001
v -3.999999 10.855692 4.000001
v -3.999999 12.105333 4.000001
v 4.000001 12.105333 4.999999
v 4.000001 10.855692 4.999999
v 4.000001 10.855692 3.999999
v 4.000001 12.105333 3.999999
v 5.000001 12.105333 3.999998
v 5.000001 10.855692 3.999998
v 5.000001 10.855692 4.999999
v 5.000001 12.105333 4.999999
vn -0.0000 1.0000 -0.0000
vn -0.0000 -0.0000 -1.0000
vn 1.0000 -0.0000 -0.0000
vn -1.0000 -0.0000 -0.0000
vn -0.0000 -0.0000 1.0000
vn -0.0000 -1.0000 -0.0000
vt 0.791667 0.666667
vt 0.875000 0.666667
vt 0.875000 0.750000
vt 0.791667 0.750000
vt 0.375000 0.916667
vt 0.625000 0.916667
vt 0.625000 1.000000
vt 0.375000 1.000000
vt 0.375000 0.166667
vt 0.625000 0.166667
vt 0.625000 0.250000
vt 0.375000 0.250000
vt 0.375000 0.666667
vt 0.625000 0.666667
vt 0.625000 0.750000
vt 0.375000 0.750000
vt 0.375000 0.416667
vt 0.625000 0.416667
vt 0.625000 0.500000
vt 0.375000 0.500000
vt 0.625000 0.333333
vt 0.375000 0.333333
vt 0.208333 0.583333
vt 0.125000 0.583333
vt 0.208333 0.666667
vt 0.291667 0.666667
vt 0.291667 0.750000
vt 0.208333 0.750000
vt 0.625000 0.833333
vt 0.375000 0.833333
vt 0.708333 0.666667
vt 0.708333 0.750000
vt 0.708333 0.500000
vt 0.791667 0.500000
vt 0.791667 0.583333
vt 0.708333 0.583333
vt 0.625000 0.583333
vt 0.625000 0.583333
vt 0.208333 0.500000
vt 0.291667 0.500000
vt 0.291667 0.583333
vt 0.125000 0.666667
vt 0.375000 0.583333
vt 0.375000 0.000000
vt 0.625000 0.000000
vt 0.625000 0.083333
vt 0.375000 0.083333
vt 0.875000 0.583333
vt 0.125000 0.750000
vt 0.125000 0.500000
vt 0.875000 0.500000
vt 0.708333 0.583333
vt 0.000000 0.000000
vt 0.708333 0.500000
vt 0.791667 0.583333
s 0
usemtl Material
f 32/1/1 21/2/1 7/3/1 12/4/1
f 13/5/2 12/6/2 7/7/2 8/8/2
f 17/9/3 22/10/3 5/11/3 6/12/3
f 17/9/3 6/12/3 36/12/3 45/9/3
f 23/13/4 20/14/4 3/15/4 4/16/4
f 9/17/5 16/18/5 1/19/5 2/20/5
f 6/12/5 5/11/5 15/21/5 10/22/5
f 10/22/5 15/21/5 16/18/5 9/17/5
f 25/23/2 17/24/2 45/24/2 47/23/2
f 26/25/6 28/26/6 14/27/6 13/28/6
f 4/16/2 3/15/2 11/29/2 14/30/2
f 14/30/2 11/29/2 12/6/2 13/5/2
f 20/14/1 30/31/1 11/32/1 3/15/1
f 30/31/1 32/1/1 12/4/1 11/32/1
f 16/33/1 15/34/1 31/35/1 29/36/1
f 29/36/1 31/35/1 32/1/1 30/31/1
f 59/37/4 58/19/4 52/19/4 54/38/4
f 19/38/1 29/36/1 30/31/1 20/14/1
f 10/39/6 9/40/6 27/41/6 25/23/6
f 25/23/6 27/41/6 28/26/6 26/25/6
f 9/17/5 2/20/5 40/20/5 41/17/5
f 17/24/6 25/23/6 26/25/6 18/42/6
f 2/20/4 1/19/4 19/38/4 24/43/4
f 24/43/4 19/38/4 20/14/4 23/13/4
f 23/13/4 4/16/4 38/16/4 46/13/4
f 27/41/6 24/43/6 23/13/6 28/26/6
f 8/44/3 7/45/3 21/46/3 18/47/3
f 18/47/3 21/46/3 22/10/3 17/9/3
f 58/19/5 57/18/5 51/18/5 52/19/5
f 31/35/1 22/48/1 21/2/1 32/1/1
f 44/26/6 46/13/6 38/16/6 37/27/6
f 33/42/6 43/25/6 42/28/6 34/49/6
f 36/50/6 35/39/6 47/23/6 45/24/6
f 41/40/6 40/20/6 39/43/6 48/41/6
f 10/39/4 25/23/4 47/23/4 35/39/4
f 18/42/5 26/25/5 43/25/5 33/42/5
f 26/25/4 13/28/4 42/28/4 43/25/4
f 8/44/3 18/47/3 33/47/3 34/44/3
f 4/16/2 14/30/2 37/30/2 38/16/2
f 14/27/3 28/26/3 44/26/3 37/27/3
f 6/12/5 10/22/5 35/22/5 36/12/5
f 27/41/3 9/40/3 41/40/3 48/41/3
f 13/5/2 8/8/2 34/8/2 42/5/2
f 24/43/2 27/41/2 48/41/2 39/43/2
f 28/26/5 23/13/5 46/13/5 44/26/5
f 2/20/4 24/43/4 39/43/4 40/20/4
f 52/19/1 51/33/1 55/36/1 54/38/1
f 53/34/1 50/51/1 49/48/1 56/35/1
f 60/52/2 59/37/2 54/38/2 55/36/2
f 60/53/2 55/53/2 56/53/2 63/53/2
f 64/11/3 62/10/3 49/10/3 50/11/3
f 57/53/6 60/53/6 63/53/6 61/53/6
f 61/21/5 64/11/5 50/11/5 53/21/5
f 62/48/2 63/35/2 56/35/2 49/48/2
f 65/33/3 72/52/3 60/52/3 57/54/3
f 72/36/2 70/37/2 59/37/2 60/52/2
f 67/19/5 65/18/5 57/18/5 58/19/5
f 70/38/4 67/19/4 58/19/4 59/37/4
f 77/48/2 76/55/2 63/35/2 62/48/2
f 73/21/5 80/11/5 64/11/5 61/21/5
f 80/11/3 77/10/3 62/10/3 64/11/3
f 76/35/4 73/34/4 61/34/4 63/35/4
f 19/38/4 1/19/4 68/19/4 69/38/4
f 31/35/4 15/34/4 74/34/4 75/35/4
f 16/33/3 29/36/3 71/36/3 66/33/3
f 29/36/2 19/38/2 69/38/2 71/36/2
f 5/11/3 22/10/3 78/10/3 79/11/3
f 22/48/2 31/35/2 75/35/2 78/48/2
f 72/53/2 76/53/2 75/53/2 71/53/2
f 15/21/5 5/11/5 79/11/5 74/21/5
f 55/53/1 51/53/1 53/53/1 56/53/1
f 51/53/5 57/53/5 61/53/5 53/53/5
f 65/53/1 73/53/1 76/53/1 72/53/1
f 70/37/2 72/36/2 71/36/2 69/38/2
f 65/18/5 67/19/5 68/19/5 66/18/5
f 67/19/4 70/38/4 69/38/4 68/19/4
f 76/55/2 77/48/2 78/48/2 75/35/2
f 80/11/5 73/21/5 74/21/5 79/11/5
f 77/10/3 80/11/3 79/11/3 78/10/3
f 66/53/5 74/53/5 73/53/5 65/53/5
f 1/19/5 16/18/5 66/18/5 68/19/5
f 71/53/6 75/53/6 74/53/6 66/53/6
